<svg width="53" height="68" viewBox="0 0 53 68" fill="none" xmlns="http://www.w3.org/2000/svg">
<g filter="url(#filter0_ii_554_2630)">
<path d="M52.1297 47.0916C52.1297 51.0645 51.1006 54.634 49.0422 57.8004C47.0137 60.9667 44.0306 63.446 40.0929 65.2383C36.1552 67.0305 31.4867 67.9266 26.0872 67.9266C19.6139 67.9266 14.2742 66.7019 10.068 64.2525C7.08487 62.4901 4.65364 60.1452 2.77429 57.2179C0.924762 54.2607 0 51.393 0 48.615C0 47.002 0.551874 45.6279 1.65562 44.4928C2.7892 43.3279 4.22109 42.7454 5.95129 42.7454C7.35335 42.7454 8.53168 43.1935 9.48627 44.0896C10.4707 44.9857 11.306 46.315 11.9921 48.0774C12.8273 50.1683 13.7223 51.9158 14.6769 53.3197C15.6613 54.7237 17.0335 55.8886 18.7936 56.8146C20.5536 57.7108 22.8655 58.1588 25.7293 58.1588C29.667 58.1588 32.8589 57.2478 35.305 55.4256C37.781 53.5736 39.019 51.2736 39.019 48.5254C39.019 46.3448 38.3478 44.5825 37.0054 43.2383C35.6928 41.8642 33.9776 40.8187 31.8596 40.1018C29.7714 39.3849 26.9673 38.6232 23.4472 37.8167C18.7339 36.7115 14.7813 35.427 11.5894 33.9633C8.42727 32.4698 5.90655 30.4535 4.02719 27.9144C2.17767 25.3455 1.2529 22.1643 1.2529 18.3707C1.2529 14.7563 2.23733 11.5451 4.20618 8.73727C6.17503 5.92939 9.02389 3.77868 12.7528 2.28513C16.4817 0.76171 20.8668 0 25.9083 0C29.9355 0 33.4108 0.507807 36.3342 1.52342C39.2875 2.50916 41.7336 3.83842 43.6726 5.5112C45.6117 7.1541 47.0286 8.88662 47.9236 10.7088C48.8185 12.5309 49.266 14.3082 49.266 16.0407C49.266 17.6239 48.6992 19.0577 47.5656 20.3421C46.4618 21.5967 45.0747 22.224 43.4042 22.224C41.8828 22.224 40.7194 21.8506 39.9139 21.1039C39.1383 20.3272 38.2881 19.0726 37.3634 17.3401C36.1701 14.8608 34.7382 12.9341 33.0677 11.5601C31.3972 10.1561 28.7124 9.45417 25.0133 9.45417C21.5828 9.45417 18.8085 10.2159 16.6905 11.7393C14.6023 13.2329 13.5582 15.04 13.5582 17.1609C13.5582 18.4752 13.9162 19.6103 14.6321 20.5662C15.3481 21.5221 16.3325 22.3435 17.5854 23.0305C18.8383 23.7176 20.1061 24.2552 21.3889 24.6436C22.6716 25.0319 24.7896 25.5994 27.7429 26.3462C31.4419 27.2125 34.783 28.1683 37.7661 29.2138C40.779 30.2593 43.3296 31.5288 45.4178 33.0224C47.5358 34.5159 49.1765 36.4127 50.3399 38.7128C51.5331 40.983 52.1297 43.7759 52.1297 47.0916Z" fill="#0F172A"/>
</g>
<defs>
<filter id="filter0_ii_554_2630" x="-2" y="-2" width="56.1299" height="71.9266" filterUnits="userSpaceOnUse" color-interpolation-filters="sRGB">
<feFlood flood-opacity="0" result="BackgroundImageFix"/>
<feBlend mode="normal" in="SourceGraphic" in2="BackgroundImageFix" result="shape"/>
<feColorMatrix in="SourceAlpha" type="matrix" values="0 0 0 0 0 0 0 0 0 0 0 0 0 0 0 0 0 0 127 0" result="hardAlpha"/>
<feOffset dx="2" dy="2"/>
<feGaussianBlur stdDeviation="2"/>
<feComposite in2="hardAlpha" operator="arithmetic" k2="-1" k3="1"/>
<feColorMatrix type="matrix" values="0 0 0 0 0.972549 0 0 0 0 0.980392 0 0 0 0 0.988235 0 0 0 0.45 0"/>
<feBlend mode="normal" in2="shape" result="effect1_innerShadow_554_2630"/>
<feColorMatrix in="SourceAlpha" type="matrix" values="0 0 0 0 0 0 0 0 0 0 0 0 0 0 0 0 0 0 127 0" result="hardAlpha"/>
<feOffset dx="-2" dy="-2"/>
<feGaussianBlur stdDeviation="2"/>
<feComposite in2="hardAlpha" operator="arithmetic" k2="-1" k3="1"/>
<feColorMatrix type="matrix" values="0 0 0 0 0.972549 0 0 0 0 0.980392 0 0 0 0 0.988235 0 0 0 0.3 0"/>
<feBlend mode="normal" in2="effect1_innerShadow_554_2630" result="effect2_innerShadow_554_2630"/>
</filter>
</defs>
</svg>
