<svg width="45" height="68" viewBox="0 0 45 68" fill="none" xmlns="http://www.w3.org/2000/svg">
<g filter="url(#filter0_ii_554_2634)">
<path d="M0.437988 19.1987C0.437988 16.382 1.34231 13.5356 3.15095 10.6596C4.95959 7.75389 7.59842 5.35225 11.0675 3.45466C14.5365 1.55707 18.5837 0.608276 23.2091 0.608276C27.5083 0.608276 31.3035 1.40882 34.5946 3.00991C37.8857 4.58135 40.4208 6.73097 42.1998 9.45875C44.0084 12.1865 44.9127 15.1515 44.9127 18.3537C44.9127 20.8739 44.3939 23.0829 43.3561 24.9804C42.348 26.878 41.1324 28.5236 39.7092 29.9171C38.3157 31.281 35.7954 33.5937 32.1485 36.8552C31.1404 37.7743 30.325 38.5897 29.7024 39.3013C29.1094 39.9833 28.6646 40.6207 28.3681 41.2137C28.0716 41.7771 27.8344 42.3552 27.6565 42.9482C27.5083 43.5116 27.2711 44.5197 26.9449 45.9725C26.3816 49.0561 24.6174 50.5979 21.6524 50.5979C20.1107 50.5979 18.8061 50.0939 17.7387 49.0858C16.7009 48.0777 16.1821 46.5803 16.1821 44.5938C16.1821 42.1032 16.5675 39.9536 17.3384 38.145C18.1093 36.3067 19.1322 34.7056 20.4072 33.3417C21.6821 31.9482 23.4018 30.3026 25.5662 28.405C27.4638 26.7446 28.8277 25.4993 29.6579 24.6691C30.5177 23.8093 31.2293 22.8605 31.7927 21.8227C32.3857 20.785 32.6822 19.6583 32.6822 18.4427C32.6822 16.0707 31.7927 14.0693 30.0137 12.4386C28.2644 10.8078 25.9961 9.99245 23.2091 9.99245C19.9476 9.99245 17.5459 10.8226 16.0042 12.483C14.4624 14.1138 13.1578 16.5302 12.0904 19.7324C11.0823 23.0829 9.16987 24.7581 6.35313 24.7581C4.69274 24.7581 3.28437 24.1799 2.12803 23.0236C1.00134 21.8376 0.437988 20.5626 0.437988 19.1987ZM22.1417 67.9431C20.333 67.9431 18.7468 67.3649 17.3829 66.2085C16.0486 65.0225 15.3815 63.377 15.3815 61.2718C15.3815 59.4039 16.0338 57.8325 17.3384 56.5575C18.643 55.2826 20.2441 54.6451 22.1417 54.6451C24.0096 54.6451 25.581 55.2826 26.856 56.5575C28.1309 57.8325 28.7684 59.4039 28.7684 61.2718C28.7684 63.3473 28.1013 64.9781 26.767 66.1641C25.4328 67.3501 23.891 67.9431 22.1417 67.9431Z" fill="#0F172A"/>
</g>
<defs>
<filter id="filter0_ii_554_2634" x="-1.56201" y="-1.39172" width="48.4746" height="71.3348" filterUnits="userSpaceOnUse" color-interpolation-filters="sRGB">
<feFlood flood-opacity="0" result="BackgroundImageFix"/>
<feBlend mode="normal" in="SourceGraphic" in2="BackgroundImageFix" result="shape"/>
<feColorMatrix in="SourceAlpha" type="matrix" values="0 0 0 0 0 0 0 0 0 0 0 0 0 0 0 0 0 0 127 0" result="hardAlpha"/>
<feOffset dx="2" dy="2"/>
<feGaussianBlur stdDeviation="2"/>
<feComposite in2="hardAlpha" operator="arithmetic" k2="-1" k3="1"/>
<feColorMatrix type="matrix" values="0 0 0 0 0.972549 0 0 0 0 0.980392 0 0 0 0 0.988235 0 0 0 0.45 0"/>
<feBlend mode="normal" in2="shape" result="effect1_innerShadow_554_2634"/>
<feColorMatrix in="SourceAlpha" type="matrix" values="0 0 0 0 0 0 0 0 0 0 0 0 0 0 0 0 0 0 127 0" result="hardAlpha"/>
<feOffset dx="-2" dy="-2"/>
<feGaussianBlur stdDeviation="2"/>
<feComposite in2="hardAlpha" operator="arithmetic" k2="-1" k3="1"/>
<feColorMatrix type="matrix" values="0 0 0 0 0.972549 0 0 0 0 0.980392 0 0 0 0 0.988235 0 0 0 0.3 0"/>
<feBlend mode="normal" in2="effect1_innerShadow_554_2634" result="effect2_innerShadow_554_2634"/>
</filter>
</defs>
</svg>
