<svg width="14" height="68" viewBox="0 0 14 68" fill="none" xmlns="http://www.w3.org/2000/svg">
<g filter="url(#filter0_ii_494_2880)">
<path d="M1.84148 38.4465L0.404227 16.9326C0.134742 12.7406 0 9.7314 0 7.90489C0 5.41964 0.643769 3.48833 1.93131 2.11096C3.24879 0.703655 4.9705 0 7.09643 0C9.67151 0 11.3932 0.898283 12.2616 2.69485C13.1299 4.46147 13.5641 7.02158 13.5641 10.3752C13.5641 12.3514 13.4593 14.3576 13.2497 16.3937L11.3184 38.5363C11.1088 41.1713 10.6596 43.1924 9.97094 44.5997C9.28225 46.007 8.14443 46.7107 6.55746 46.7107C4.94055 46.7107 3.8177 46.037 3.1889 44.6896C2.56011 43.3122 2.11096 41.2312 1.84148 38.4465ZM6.82695 68C5.00044 68 3.3985 67.4161 2.02114 66.2483C0.673712 65.0506 0 63.3888 0 61.2629C0 59.4064 0.643769 57.8344 1.93131 56.5469C3.24879 55.2294 4.85073 54.5707 6.73712 54.5707C8.62351 54.5707 10.2255 55.2294 11.5429 56.5469C12.8904 57.8344 13.5641 59.4064 13.5641 61.2629C13.5641 63.3589 12.8904 65.0057 11.5429 66.2034C10.1955 67.4011 8.62351 68 6.82695 68Z" fill="#0F172A"/>
</g>
<defs>
<filter id="filter0_ii_494_2880" x="-2" y="-2" width="17.5641" height="72" filterUnits="userSpaceOnUse" color-interpolation-filters="sRGB">
<feFlood flood-opacity="0" result="BackgroundImageFix"/>
<feBlend mode="normal" in="SourceGraphic" in2="BackgroundImageFix" result="shape"/>
<feColorMatrix in="SourceAlpha" type="matrix" values="0 0 0 0 0 0 0 0 0 0 0 0 0 0 0 0 0 0 127 0" result="hardAlpha"/>
<feOffset dx="2" dy="2"/>
<feGaussianBlur stdDeviation="2"/>
<feComposite in2="hardAlpha" operator="arithmetic" k2="-1" k3="1"/>
<feColorMatrix type="matrix" values="0 0 0 0 0.972549 0 0 0 0 0.980392 0 0 0 0 0.988235 0 0 0 0.45 0"/>
<feBlend mode="normal" in2="shape" result="effect1_innerShadow_494_2880"/>
<feColorMatrix in="SourceAlpha" type="matrix" values="0 0 0 0 0 0 0 0 0 0 0 0 0 0 0 0 0 0 127 0" result="hardAlpha"/>
<feOffset dx="-2" dy="-2"/>
<feGaussianBlur stdDeviation="2"/>
<feComposite in2="hardAlpha" operator="arithmetic" k2="-1" k3="1"/>
<feColorMatrix type="matrix" values="0 0 0 0 0.972549 0 0 0 0 0.980392 0 0 0 0 0.988235 0 0 0 0.3 0"/>
<feBlend mode="normal" in2="effect1_innerShadow_494_2880" result="effect2_innerShadow_494_2880"/>
</filter>
</defs>
</svg>
