<svg width="70" height="51" viewBox="0 0 70 51" fill="none" xmlns="http://www.w3.org/2000/svg">
<g filter="url(#filter0_ii_554_2635)">
<path d="M41.117 26.5228V42.7957C41.117 45.3659 40.5389 47.2936 39.3826 48.5787C38.2264 49.8638 36.6996 50.5063 34.8023 50.5063C32.9642 50.5063 31.467 49.8638 30.3108 48.5787C29.1842 47.2936 28.6209 45.3659 28.6209 42.7957V23.2951C28.6209 20.2168 28.5172 17.8259 28.3097 16.1224C28.1021 14.4189 27.5388 13.0292 26.6198 11.9533C25.7008 10.8476 24.2481 10.2947 22.2618 10.2947C18.2891 10.2947 15.6654 11.6694 14.3906 14.4189C13.1455 17.1685 12.5229 21.1134 12.5229 26.2538V42.7957C12.5229 45.336 11.9448 47.2637 10.7886 48.5787C9.66198 49.8638 8.16483 50.5063 6.2971 50.5063C4.45901 50.5063 2.94704 49.8638 1.76118 48.5787C0.604963 47.2637 0.0268555 45.336 0.0268555 42.7957V7.78425C0.0268555 5.48303 0.54567 3.73469 1.5833 2.53925C2.65057 1.34381 4.04396 0.746094 5.76346 0.746094C7.42367 0.746094 8.80223 1.31393 9.89916 2.4496C11.0257 3.55538 11.589 5.09451 11.589 7.06699V8.23254C13.6939 5.69223 15.9471 3.82435 18.3484 2.62891C20.7498 1.43347 23.418 0.835752 26.353 0.835752C29.4066 0.835752 32.0303 1.44842 34.2241 2.67374C36.418 3.89907 38.2264 5.752 39.6495 8.23254C41.6951 5.72211 43.8889 3.86918 46.231 2.67374C48.5731 1.44842 51.1671 0.835752 54.0132 0.835752C57.3336 0.835752 60.1945 1.49324 62.5959 2.80823C64.9973 4.12321 66.7909 6.00603 67.9767 8.45668C69.0144 10.6682 69.5332 14.15 69.5332 18.9018V42.7957C69.5332 45.3659 68.9551 47.2936 67.7989 48.5787C66.6426 49.8638 65.1158 50.5063 63.2185 50.5063C61.3804 50.5063 59.8684 49.8638 58.6825 48.5787C57.5263 47.2637 56.9482 45.336 56.9482 42.7957V22.2192C56.9482 19.5892 56.8296 17.4823 56.5925 15.8983C56.3849 14.3143 55.792 12.9844 54.8137 11.9085C53.8353 10.8326 52.353 10.2947 50.3667 10.2947C48.7658 10.2947 47.239 10.7729 45.7863 11.7292C44.3633 12.6856 43.2515 13.9707 42.4511 15.5845C41.5617 17.6466 41.117 21.2927 41.117 26.5228Z" fill="#0F172A"/>
</g>
<defs>
<filter id="filter0_ii_554_2635" x="-1.97314" y="-1.25391" width="73.5063" height="53.7603" filterUnits="userSpaceOnUse" color-interpolation-filters="sRGB">
<feFlood flood-opacity="0" result="BackgroundImageFix"/>
<feBlend mode="normal" in="SourceGraphic" in2="BackgroundImageFix" result="shape"/>
<feColorMatrix in="SourceAlpha" type="matrix" values="0 0 0 0 0 0 0 0 0 0 0 0 0 0 0 0 0 0 127 0" result="hardAlpha"/>
<feOffset dx="2" dy="2"/>
<feGaussianBlur stdDeviation="2"/>
<feComposite in2="hardAlpha" operator="arithmetic" k2="-1" k3="1"/>
<feColorMatrix type="matrix" values="0 0 0 0 0.972549 0 0 0 0 0.980392 0 0 0 0 0.988235 0 0 0 0.45 0"/>
<feBlend mode="normal" in2="shape" result="effect1_innerShadow_554_2635"/>
<feColorMatrix in="SourceAlpha" type="matrix" values="0 0 0 0 0 0 0 0 0 0 0 0 0 0 0 0 0 0 127 0" result="hardAlpha"/>
<feOffset dx="-2" dy="-2"/>
<feGaussianBlur stdDeviation="2"/>
<feComposite in2="hardAlpha" operator="arithmetic" k2="-1" k3="1"/>
<feColorMatrix type="matrix" values="0 0 0 0 0.972549 0 0 0 0 0.980392 0 0 0 0 0.988235 0 0 0 0.3 0"/>
<feBlend mode="normal" in2="effect1_innerShadow_554_2635" result="effect2_innerShadow_554_2635"/>
</filter>
</defs>
</svg>
